<mxfile host="app.diagrams.net" modified="2024-01-16T09:40:40.882Z" agent="Mozilla/5.0 (Windows NT 10.0; Win64; x64) AppleWebKit/537.36 (KHTML, like Gecko) Chrome/120.0.0.0 Safari/537.36 Edg/120.0.0.0" etag="Iogsi_L-sBJqFvullbC6" version="22.1.18" type="github">
  <diagram id="prtHgNgQTEPvFCAcTncT" name="Page-1">
    <mxGraphModel dx="606" dy="308" grid="1" gridSize="10" guides="1" tooltips="1" connect="1" arrows="1" fold="1" page="1" pageScale="1" pageWidth="827" pageHeight="1169" math="0" shadow="0">
      <root>
        <mxCell id="0" />
        <mxCell id="1" parent="0" />
        <mxCell id="MBqHi0RIl6pIaIw_45iy-1" value="PrEP" style="swimlane;html=1;childLayout=stackLayout;resizeParent=1;resizeParentMax=0;horizontal=0;startSize=20;horizontalStack=0;fontFamily=Tahoma;" vertex="1" parent="1">
          <mxGeometry x="99" y="110" width="630" height="480" as="geometry" />
        </mxCell>
        <mxCell id="MBqHi0RIl6pIaIw_45iy-6" value="ก. ป้องกัน" style="swimlane;html=1;startSize=20;horizontal=0;fontFamily=Tahoma;" vertex="1" parent="MBqHi0RIl6pIaIw_45iy-1">
          <mxGeometry x="20" width="610" height="120" as="geometry" />
        </mxCell>
        <mxCell id="MBqHi0RIl6pIaIw_45iy-7" value="" style="edgeStyle=orthogonalEdgeStyle;rounded=0;orthogonalLoop=1;jettySize=auto;html=1;fontFamily=Tahoma;" edge="1" parent="MBqHi0RIl6pIaIw_45iy-6" source="MBqHi0RIl6pIaIw_45iy-8" target="MBqHi0RIl6pIaIw_45iy-9">
          <mxGeometry relative="1" as="geometry" />
        </mxCell>
        <mxCell id="MBqHi0RIl6pIaIw_45iy-8" value="" style="ellipse;whiteSpace=wrap;html=1;fontFamily=Tahoma;" vertex="1" parent="MBqHi0RIl6pIaIw_45iy-6">
          <mxGeometry x="40" y="40" width="40" height="40" as="geometry" />
        </mxCell>
        <mxCell id="MBqHi0RIl6pIaIw_45iy-9" value="ร่วมมือกับ TUC ผลักดันการจัดบริการยา PrEP เข้าชุดสิทธิประโยชน์&lt;span id=&quot;docs-internal-guid-872f812b-7fff-6672-2b00-a25f9a93de14&quot;&gt;&lt;/span&gt;" style="rounded=0;whiteSpace=wrap;html=1;fontFamily=Tahoma;fontSize=12;fontColor=#000000;align=center;" vertex="1" parent="MBqHi0RIl6pIaIw_45iy-6">
          <mxGeometry x="120" y="30" width="100" height="60" as="geometry" />
        </mxCell>
        <mxCell id="MBqHi0RIl6pIaIw_45iy-11" value="กำหนดกลุ่มเป้าหมายหลัก: กลุ่มที่มีความเสี่ยงสูง" style="rounded=0;whiteSpace=wrap;html=1;fontFamily=Tahoma;fontSize=12;fontColor=#000000;align=center;" vertex="1" parent="MBqHi0RIl6pIaIw_45iy-6">
          <mxGeometry x="371" y="30" width="109" height="60" as="geometry" />
        </mxCell>
        <mxCell id="MBqHi0RIl6pIaIw_45iy-29" value="เชิญชวนให้หน่วยบริการเข้าร่วม&lt;span id=&quot;docs-internal-guid-872f812b-7fff-6672-2b00-a25f9a93de14&quot;&gt;&lt;/span&gt;" style="rounded=0;whiteSpace=wrap;html=1;fontFamily=Tahoma;fontSize=12;fontColor=#000000;align=center;" vertex="1" parent="MBqHi0RIl6pIaIw_45iy-6">
          <mxGeometry x="244" y="30" width="100" height="60" as="geometry" />
        </mxCell>
        <mxCell id="MBqHi0RIl6pIaIw_45iy-38" value="กำหนดกลุ่มเป้าหมายหลัก: กลุ่มที่มีความเสี่ยงสูง" style="rounded=0;whiteSpace=wrap;html=1;fontFamily=Tahoma;fontSize=12;fontColor=#000000;align=center;" vertex="1" parent="MBqHi0RIl6pIaIw_45iy-6">
          <mxGeometry x="491" y="30" width="109" height="60" as="geometry" />
        </mxCell>
        <mxCell id="MBqHi0RIl6pIaIw_45iy-13" value="NAP สปสช." style="swimlane;html=1;startSize=20;horizontal=0;fontFamily=Tahoma;" vertex="1" parent="MBqHi0RIl6pIaIw_45iy-1">
          <mxGeometry x="20" y="120" width="610" height="120" as="geometry" />
        </mxCell>
        <mxCell id="MBqHi0RIl6pIaIw_45iy-17" value="สคร./สสจ." style="swimlane;html=1;startSize=20;horizontal=0;fontFamily=Tahoma;" vertex="1" parent="MBqHi0RIl6pIaIw_45iy-1">
          <mxGeometry x="20" y="240" width="610" height="120" as="geometry" />
        </mxCell>
        <mxCell id="MBqHi0RIl6pIaIw_45iy-37" style="edgeStyle=orthogonalEdgeStyle;rounded=0;orthogonalLoop=1;jettySize=auto;html=1;exitX=1;exitY=0.5;exitDx=0;exitDy=0;entryX=0;entryY=0.5;entryDx=0;entryDy=0;" edge="1" parent="MBqHi0RIl6pIaIw_45iy-17" source="MBqHi0RIl6pIaIw_45iy-19" target="MBqHi0RIl6pIaIw_45iy-35">
          <mxGeometry relative="1" as="geometry" />
        </mxCell>
        <mxCell id="MBqHi0RIl6pIaIw_45iy-19" value="เข้าระบบเพื่อดูรายงาน" style="rounded=0;whiteSpace=wrap;html=1;fontFamily=Tahoma;fontSize=12;fontColor=#000000;align=center;" vertex="1" parent="MBqHi0RIl6pIaIw_45iy-17">
          <mxGeometry x="121" y="20" width="99" height="60" as="geometry" />
        </mxCell>
        <mxCell id="MBqHi0RIl6pIaIw_45iy-35" value="ติดตามสถานการณ์และออกมาตรการ" style="rounded=0;whiteSpace=wrap;html=1;fontFamily=Tahoma;fontSize=12;fontColor=#000000;align=center;" vertex="1" parent="MBqHi0RIl6pIaIw_45iy-17">
          <mxGeometry x="261" y="20" width="99" height="60" as="geometry" />
        </mxCell>
        <mxCell id="MBqHi0RIl6pIaIw_45iy-21" value="หน่วยบริการ" style="swimlane;html=1;startSize=20;horizontal=0;fontFamily=Tahoma;" vertex="1" parent="MBqHi0RIl6pIaIw_45iy-1">
          <mxGeometry x="20" y="360" width="610" height="120" as="geometry" />
        </mxCell>
        <mxCell id="MBqHi0RIl6pIaIw_45iy-23" value="คีย์ข้อมูลเข้าระบบ" style="rounded=0;whiteSpace=wrap;html=1;fontFamily=Tahoma;fontSize=12;fontColor=#000000;align=center;" vertex="1" parent="MBqHi0RIl6pIaIw_45iy-21">
          <mxGeometry x="120" y="20" width="100" height="60" as="geometry" />
        </mxCell>
        <mxCell id="MBqHi0RIl6pIaIw_45iy-30" value="ระบบ prepthai.net" style="rounded=0;whiteSpace=wrap;html=1;fontFamily=Tahoma;fontSize=12;fontColor=#000000;align=center;" vertex="1" parent="MBqHi0RIl6pIaIw_45iy-21">
          <mxGeometry x="331" y="20" width="100" height="60" as="geometry" />
        </mxCell>
        <mxCell id="MBqHi0RIl6pIaIw_45iy-31" value="" style="endArrow=classic;html=1;rounded=0;exitX=1;exitY=0.5;exitDx=0;exitDy=0;entryX=0;entryY=0.5;entryDx=0;entryDy=0;" edge="1" parent="MBqHi0RIl6pIaIw_45iy-21" source="MBqHi0RIl6pIaIw_45iy-23" target="MBqHi0RIl6pIaIw_45iy-30">
          <mxGeometry width="50" height="50" relative="1" as="geometry">
            <mxPoint x="221" y="70" as="sourcePoint" />
            <mxPoint x="271" y="20" as="targetPoint" />
          </mxGeometry>
        </mxCell>
        <mxCell id="MBqHi0RIl6pIaIw_45iy-33" value="ความถี่: รายเดือน" style="text;html=1;align=center;verticalAlign=middle;resizable=0;points=[];autosize=1;strokeColor=none;fillColor=none;" vertex="1" parent="MBqHi0RIl6pIaIw_45iy-21">
          <mxGeometry x="215" y="27" width="110" height="30" as="geometry" />
        </mxCell>
        <mxCell id="MBqHi0RIl6pIaIw_45iy-34" value="*แล้วแต่รพ." style="text;html=1;align=center;verticalAlign=middle;resizable=0;points=[];autosize=1;strokeColor=none;fillColor=none;" vertex="1" parent="MBqHi0RIl6pIaIw_45iy-21">
          <mxGeometry x="230" y="45" width="80" height="30" as="geometry" />
        </mxCell>
        <mxCell id="MBqHi0RIl6pIaIw_45iy-36" style="edgeStyle=orthogonalEdgeStyle;rounded=0;orthogonalLoop=1;jettySize=auto;html=1;exitX=0.5;exitY=1;exitDx=0;exitDy=0;entryX=0.5;entryY=0;entryDx=0;entryDy=0;" edge="1" parent="MBqHi0RIl6pIaIw_45iy-1" source="MBqHi0RIl6pIaIw_45iy-19" target="MBqHi0RIl6pIaIw_45iy-30">
          <mxGeometry relative="1" as="geometry" />
        </mxCell>
      </root>
    </mxGraphModel>
  </diagram>
</mxfile>
